<svg width="45" height="32" viewBox="0 0 45 32" fill="none" xmlns="http://www.w3.org/2000/svg">
<rect x="0.5" y="0.5" width="44" height="30.7647" rx="4.79412" fill="#1A1A1A" stroke="#333333"/>
<path d="M18.5293 30.6765L43.6764 23.0662V26.7059C43.6764 28.8988 41.8987 30.6765 39.7058 30.6765H18.5293Z" fill="#FD6020"/>
<path fill-rule="evenodd" clip-rule="evenodd" d="M38.9046 12.0586C40.2881 12.0586 41.049 12.6985 41.049 13.9074C41.1182 14.8318 40.4956 15.614 39.6655 15.7562L41.5332 18.3873H40.0806L38.4896 15.8274H38.3512V18.3873H37.1753V12.0586H38.9046ZM38.3508 14.9741H38.6967C39.4576 14.9741 39.8035 14.6185 39.8035 13.9785C39.8035 13.4097 39.4576 13.0541 38.6967 13.0541H38.3508V14.9741ZM33.0935 18.3873H36.4139V17.3206H34.2695V15.614H36.3447V14.5474H34.2695V13.1252H36.4139V12.0586H33.0935V18.3873ZM29.6351 16.3251L28.0441 12.0586H26.799L29.3584 18.5295H29.981L32.5404 12.0586H31.2953L29.6351 16.3251ZM15.5929 15.2585C15.5929 17.0362 16.9764 18.5295 18.7058 18.5295C19.2592 18.5295 19.7434 18.3873 20.2276 18.174V16.7518C19.8817 17.1784 19.3975 17.4629 18.8441 17.4629C17.7373 17.4629 16.8381 16.6096 16.8381 15.4718V15.3296C16.7689 14.1919 17.6682 13.1963 18.7749 13.1252C19.3283 13.1252 19.8817 13.4097 20.2276 13.8363V12.4141C19.8126 12.1297 19.2592 12.0586 18.7749 12.0586C16.9764 11.9164 15.5929 13.4097 15.5929 15.2585ZM13.4469 14.4763C12.7552 14.1919 12.5477 14.0496 12.5477 13.6941C12.6168 13.2674 12.9627 12.9119 13.3778 12.983C13.7236 12.983 14.0695 13.1963 14.3462 13.4808L14.9688 12.6274C14.4845 12.2008 13.862 11.9164 13.2394 11.9164C12.271 11.8452 11.4409 12.6274 11.3717 13.623V13.6941C11.3717 14.5474 11.7176 15.0452 12.8244 15.4007C13.1011 15.4718 13.3778 15.614 13.6544 15.7563C13.862 15.8985 14.0003 16.1118 14.0003 16.3962C14.0003 16.894 13.5853 17.3207 13.1702 17.3207H13.1011C12.5477 17.3207 12.0634 16.9651 11.8559 16.4673L11.095 17.2495C11.5101 18.0317 12.3401 18.4584 13.1702 18.4584C14.277 18.5295 15.1763 17.6762 15.2454 16.5385V16.3251C15.1763 15.4718 14.8304 15.0452 13.4469 14.4763ZM9.43543 18.3873H10.6114V12.0586H9.43543V18.3873ZM3.9707 12.0586H5.70005H6.04592C7.70609 12.1297 9.0204 13.5519 8.95122 15.2585C8.95122 16.1829 8.53618 17.0362 7.84444 17.6762C7.22188 18.174 6.46096 18.4584 5.70005 18.3873H3.9707V12.0586ZM5.49264 17.3206C6.04603 17.3917 6.6686 17.1784 7.08364 16.8229C7.49868 16.3962 7.70621 15.8273 7.70621 15.1873C7.70621 14.6185 7.49868 14.0496 7.08364 13.6229C6.6686 13.2674 6.04603 13.0541 5.49264 13.1252H5.14677V17.3206H5.49264Z" fill="white"/>
<path fill-rule="evenodd" clip-rule="evenodd" d="M23.7533 11.9119C22.0239 11.9119 20.5713 13.334 20.5713 15.1829C20.5713 16.9606 21.9548 18.4539 23.7533 18.525C25.5518 18.5961 26.9353 17.1028 27.0045 15.254C26.9353 13.4052 25.5518 11.9119 23.7533 11.9119V11.9119Z" fill="#FD6020"/>
</svg>
